<svg xmlns="http://www.w3.org/2000/svg" width="60" height="60" enable-background="new" viewBox="0 0 60 60"><path style="font-feature-settings:normal;font-variant-alternates:normal;font-variant-caps:normal;font-variant-east-asian:normal;font-variant-ligatures:normal;font-variant-numeric:normal;font-variant-position:normal;font-variation-settings:normal;inline-size:0;isolation:auto;mix-blend-mode:normal;shape-margin:0;shape-padding:0;text-decoration-color:#000;text-decoration-line:none;text-decoration-style:solid;text-indent:0;text-orientation:mixed;text-transform:none" d="m22 8c-7.7387 0-14 6.2613-14 14v16c0 7.7387 6.2613 14 14 14h16c7.7387 0 14-6.2613 14-14v-16c0-7.7387-6.2613-14-14-14zm0 2h16c6.6653 0 12 5.3347 12 12v16c0 6.6653-5.3347 12-12 12h-5v-14h4c1.6447 0 3-1.3553 3-3s-1.3553-3-3-3h-4v-3c0-1.7324 1.2676-3 3-3h3c1.645 0 3-1.355 3-3s-1.355-3-3-3h-3c-4.9436 0-9 4.0564-9 9v3h-4c-1.6447 0-3 1.3553-3 3s1.3553 3 3 3h4v14h-5c-6.6653 0-12-5.3347-12-12v-16c0-6.6653 5.3347-12 12-12zm14 10h3c0.56413 0 1 0.43587 1 1s-0.43587 1-1 1h-3c-2.7688 0-5 2.2312-5 5v4c5.5e-5 0.55226 0.44774 0.99994 1 1h5c0.5713 0 1 0.4287 1 1s-0.4287 1-1 1h-5c-0.55226 5.5e-5 -0.99994 0.44774-1 1v15h-2v-15c-5.5e-5 -0.55226-0.44774-0.99994-1-1h-5c-0.5713 0-1-0.4287-1-1s0.4287-1 1-1h5c0.55226-5.5e-5 0.99994-0.44774 1-1v-4c0-3.8512 3.1488-7 7-7z" color="#000" solid-color="#000000" white-space="normal"/></svg>