<svg xmlns="http://www.w3.org/2000/svg" width="60" height="60" enable-background="new" viewBox="0 0 60 60"><path style="font-feature-settings:normal;font-variant-alternates:normal;font-variant-caps:normal;font-variant-east-asian:normal;font-variant-ligatures:normal;font-variant-numeric:normal;font-variant-position:normal;font-variation-settings:normal;inline-size:0;isolation:auto;mix-blend-mode:normal;shape-margin:0;shape-padding:0;text-decoration-color:#000;text-decoration-line:none;text-decoration-style:solid;text-indent:0;text-orientation:mixed;text-transform:none" d="m22 8c-7.7387 0-14 6.2613-14 14v16c0 7.7387 6.2613 14 14 14h16c7.7387 0 14-6.2613 14-14v-16c0-7.7387-6.2613-14-14-14h-16zm0 2h16c6.6653 0 12 5.3347 12 12v16c0 6.6653-5.3347 12-12 12h-16c-6.6653 0-12-5.3347-12-12v-16c0-6.6653 5.3347-12 12-12z" color="#000" solid-color="#000000" white-space="normal"/><path style="font-feature-settings:normal;font-variant-alternates:normal;font-variant-caps:normal;font-variant-east-asian:normal;font-variant-ligatures:normal;font-variant-numeric:normal;font-variant-position:normal;font-variation-settings:normal;inline-size:0;isolation:auto;mix-blend-mode:normal;shape-margin:0;shape-padding:0;text-decoration-color:#000;text-decoration-line:none;text-decoration-style:solid;text-indent:0;text-orientation:mixed;text-transform:none" d="M30 19c-6.0633 0-11 4.9367-11 11s4.9367 11 11 11 11-4.9367 11-11-4.9367-11-11-11zm0 2c4.9824 0 9 4.0176 9 9s-4.0176 9-9 9-9-4.0176-9-9 4.0176-9 9-9zM42 15c-1.645 0-3 1.355-3 3s1.355 3 3 3 3-1.355 3-3-1.355-3-3-3zm0 2c.56413 0 1 .43587 1 1s-.43587 1-1 1-1-.43587-1-1 .43587-1 1-1z" color="#000" solid-color="#000000" white-space="normal"/></svg>