<?xml version="1.0" encoding="utf-8"?>
<!-- Generator: Adobe Illustrator 23.0.3, SVG Export Plug-In . SVG Version: 6.00 Build 0)  -->
<svg version="1.1" id="Icons" xmlns="http://www.w3.org/2000/svg" xmlns:xlink="http://www.w3.org/1999/xlink" x="0px" y="0px"
	 viewBox="0 0 32 32" style="enable-background:new 0 0 32 32;" xml:space="preserve">
<g>
	<path d="M29.8,7.2c-1.1-1.8-4-2-8.2-0.6C20,5.6,18.1,5,16,5C9.9,5,5,9.9,5,16c0,0.4,0,0.8,0.1,1.2c-2.8,3.1-3.8,5.7-2.7,7.4
		c0.7,1.1,1.9,1.5,3.5,1.5c3.5,0,8.8-2.2,13.4-5.2c3.5-2.2,6.6-4.8,8.5-7.3C30.7,10.3,30.5,8.3,29.8,7.2z M4.1,23.6
		c-0.4-0.6,0-2,1.6-3.9c0.6,1.6,1.5,3,2.7,4.2C6.1,24.4,4.5,24.3,4.1,23.6z M26.4,12.4c-0.6-1.7-1.5-3.2-2.8-4.4
		c2.6-0.6,4.1-0.4,4.5,0.2C28.5,8.8,28.2,10.2,26.4,12.4z"/>
	<path d="M11.8,26.2c1.3,0.5,2.7,0.8,4.2,0.8c5.8,0,10.5-4.5,11-10.2c-1.9,1.8-4.2,3.6-6.6,5.2C17.4,23.8,14.5,25.3,11.8,26.2z"/>
</g>
</svg>
