<svg xmlns="http://www.w3.org/2000/svg" width="60" height="60" enable-background="new" viewBox="0 0 60 60"><path d="m51.012 10a1.0001 1.0001 0 0 0-0.40625 0.08008l-42 18a1.0001 1.0001 0 0 0 0.023438 1.8477l9.5684 3.8282 3.8535 11.561a1.0001 1.0001 0 0 0 1.6563 0.39063l6.5391-6.5392 12.096 10.584a1.0001 1.0001 0 0 0 1.6367-0.54689l8-38.001a1.0001 1.0001 0 0 0-0.9668-1.2051zm-1.3867 2.6778-7.252 34.446-13.871-12.137 10.17-9.2463a1 1 0 0 0 0.06836-1.4121 1 1 0 0 0-1.4121-0.06836l-11 10a1.0001 1.0001 0 0 0 0.01367 1.4922l2.3965 2.0958-5.3008 5.3009-3.4883-10.465a1.0001 1.0001 0 0 0-0.57813-0.61134l-7.7578-3.1036z" color="#000" solid-color="#000000" white-space="normal" style="font-feature-settings:normal;font-variant-alternates:normal;font-variant-caps:normal;font-variant-east-asian:normal;font-variant-ligatures:normal;font-variant-numeric:normal;font-variant-position:normal;font-variation-settings:normal;inline-size:0;isolation:auto;mix-blend-mode:normal;shape-margin:0;shape-padding:0;text-decoration-color:#000;text-decoration-line:none;text-decoration-style:solid;text-indent:0;text-orientation:mixed;text-transform:none"/></svg>