<?xml version="1.0" encoding="utf-8"?>
<!-- Generator: Adobe Illustrator 23.0.3, SVG Export Plug-In . SVG Version: 6.00 Build 0)  -->
<svg version="1.1" id="Icons" xmlns="http://www.w3.org/2000/svg" xmlns:xlink="http://www.w3.org/1999/xlink" x="0px" y="0px"
	 viewBox="0 0 32 32" style="enable-background:new 0 0 32 32;" xml:space="preserve">
<style type="text/css">
	.st0{fill:none;stroke:#000000;stroke-width:2;stroke-linejoin:round;stroke-miterlimit:10;}
	.st1{fill:none;stroke:#000000;stroke-width:2;stroke-linecap:round;stroke-linejoin:round;stroke-miterlimit:10;}
	.st2{fill:none;stroke:#000000;stroke-width:2;stroke-miterlimit:10;}
</style>
<circle class="st0" cx="16" cy="21" r="3"/>
<path class="st0" d="M12.7,14h6.6c1.2,0,2.1,0.4,2.1,1.7v0c0,1.3,1,2.3,2.2,2.3H29c0-4.4-3.4-8-7.6-8H10.6C6.4,10,3,13.6,3,18h5.4
	c1.2,0,2.2-1.1,2.2-2.3v0C10.6,14.4,11.5,14,12.7,14z"/>
<line class="st1" x1="23" y1="27" x2="23" y2="29"/>
<line class="st1" x1="9" y1="27" x2="9" y2="29"/>
<path class="st0" d="M9,18c-1.5,2.4-3,6.1-3,9v0h20v0c0-2.9-1.5-6.6-3-9"/>
</svg>
