<svg xmlns="http://www.w3.org/2000/svg" width="60" height="60" enable-background="new" viewBox="0 0 60 60"><path style="font-feature-settings:normal;font-variant-alternates:normal;font-variant-caps:normal;font-variant-east-asian:normal;font-variant-ligatures:normal;font-variant-numeric:normal;font-variant-position:normal;font-variation-settings:normal;inline-size:0;isolation:auto;mix-blend-mode:normal;shape-margin:0;shape-padding:0;text-decoration-color:#000;text-decoration-line:none;text-decoration-style:solid;text-indent:0;text-orientation:mixed;text-transform:none" d="m14.547 10a1.0001 1.0001 0 0 0-0.69724 0.27148c-3.6213 3.4037-5.6758 8.1616-5.6756 13.141 1.95e-5 4.9329 2.0944 9.5622 5.617 12.943l-5.0779 2.7578-0.1582 0.07617a1.0001 1.0001 0 0 0-0.37303 1.4707c4.1027 5.8541 10.79 9.3399 17.921 9.3398 12.092 0 21.911-9.8638 21.911-22 1.26e-4 -1.6474-0.24472-3.2797-0.60935-4.8848l4.3768-5.4922a1.0001 1.0001 0 0 0-0.8945-1.6172l-5.9451 0.66406c-2.0461-2.8873-5.3213-4.6699-8.8805-4.6699-5.7527 0-10.352 4.5203-10.793 10.18-4.9127-1.9552-8.6291-6.1454-9.7575-11.391a1.0001 1.0001 0 0 0-0.96481-0.78906zm-0.37108 2.9336c1.7988 5.5322 6.0392 9.961 11.656 11.688a1.0001 1.0001 0 0 0 1.2929-1.0234c-0.01364-0.1996-0.02112-0.39953-0.02148-0.59961 0.001067-4.9837 4.0021-8.998 8.9587-8.998 3.0973-1.4e-5 5.971 1.6036 7.6071 4.248a1.0001 1.0001 0 0 0 0.96286 0.46875l4.0838-0.45508-3.1307 3.9277a1.0001 1.0001 0 0 0-0.18554 0.86914c0.40982 1.6149 0.61534 3.2749 0.61521 4.9414 0 11.06-8.9042 20-19.911 20-6.0911 8.7e-5 -11.75-2.8737-15.515-7.6309l5.3162-2.8848a1.0001 1.0001 0 0 0 0.15429-1.6543c-3.7232-3.038-5.8845-7.5983-5.8846-12.418-1.79e-4 -3.8906 1.4771-7.5768 4.0018-10.479z" color="#000" solid-color="#000000" white-space="normal"/></svg>